<svg xmlns="http://www.w3.org/2000/svg" viewBox="0 0 200 200">
  <!-- Background -->
  <rect width="200" height="200" rx="25" fill="#000000"/>
  
  <!-- Location Pin -->
  <path
    d="M100 40 C120 40, 140 60, 140 80 C140 100, 120 125, 100 155 C80 125, 60 100, 60 80 C60 60, 80 40, 100 40 Z"
    fill="white"
    stroke="#1a1a1a"
    stroke-width="2"
  />
  <circle cx="100" cy="75" r="10" fill="#1a1a1a"/>
  
  <!-- Car Icon -->
  <rect x="60" y="120" width="80" height="30" rx="12" fill="white"/>
  <circle cx="78" cy="155" r="8" fill="white" stroke="#1a1a1a" stroke-width="2"/>
  <circle cx="122" cy="155" r="8" fill="white" stroke="#1a1a1a" stroke-width="2"/>
  <rect x="82" y="127" width="36" height="10" rx="3" fill="#1a1a1a"/>
  
  <!-- Motion Lines -->
  <line x1="35" y1="130" x2="55" y2="130" stroke="white" stroke-width="3"/>
  <line x1="30" y1="140" x2="50" y2="140" stroke="white" stroke-width="2"/>
  <line x1="25" y1="150" x2="45" y2="150" stroke="white" stroke-width="1.5"/>
  
</svg>